<?xml version="1.0" encoding="UTF-8" standalone="no" ?>
<!DOCTYPE svg PUBLIC "-//W3C//DTD SVG 1.1//EN" "http://www.w3.org/Graphics/SVG/1.1/DTD/svg11.dtd">
<svg xmlns="http://www.w3.org/2000/svg" xmlns:xlink="http://www.w3.org/1999/xlink" version="1.1" width="1080" height="1080" viewBox="0 0 1080 1080" xml:space="preserve">
<desc>Created with Fabric.js 5.2.4</desc>
<defs>
</defs>
<rect x="0" y="0" width="100%" height="100%" fill="transparent"></rect>
<g transform="matrix(1 0 0 1 540 540)" id="f564fab8-2a80-47b2-8cd7-09fe78df5429"  >
</g>
<g transform="matrix(1 0 0 1 540 540)" id="a33b445e-6552-45a4-abe7-67f836935277"  >
<rect style="stroke: none; stroke-width: 1; stroke-dasharray: none; stroke-linecap: butt; stroke-dashoffset: 0; stroke-linejoin: miter; stroke-miterlimit: 4; fill: rgb(255,255,255); fill-rule: nonzero; opacity: 1; visibility: hidden;" vector-effect="non-scaling-stroke"  x="-540" y="-540" rx="0" ry="0" width="1080" height="1080" />
</g>
<g transform="matrix(18 0 0 18 540 540)"  >
<g style="opacity: 1;"   >
		<g transform="matrix(1 0 0 1 -6 6)"  >
<path style="stroke: rgb(30,30,30); stroke-width: 4; stroke-dasharray: none; stroke-linecap: round; stroke-dashoffset: 0; stroke-linejoin: round; stroke-miterlimit: 4; fill: none; fill-rule: nonzero; opacity: 1;" vector-effect="non-scaling-stroke"  transform=" translate(-24, -36)" d="M 10 54 L 38 54 C 40.2091 54 42 52.2091 42 50 L 42 22 C 42 19.7909 40.2091 18 38 18 L 10 18 C 7.79086 18 6 19.7909 6 22 L 6 50 C 6 52.2091 7.79086 54 10 54 Z M 10 54 L 32 32 L 42 42 M 20 29 C 20 30.6569 18.6569 32 17 32 C 15.3431 32 14 30.6569 14 29 C 14 27.3431 15.3431 26 17 26 C 18.6569 26 20 27.3431 20 29 Z" stroke-linecap="round" />
</g>
		<g transform="matrix(1 0 0 1 18 -18)"  >
<path style="stroke: none; stroke-width: 1; stroke-dasharray: none; stroke-linecap: butt; stroke-dashoffset: 0; stroke-linejoin: miter; stroke-miterlimit: 4; fill: rgb(29,27,32); fill-rule: nonzero; opacity: 1;" vector-effect="non-scaling-stroke"  transform=" translate(-48, -12)" d="M 47 13 L 41 13 L 41 11 L 47 11 L 47 5 L 49 5 L 49 11 L 55 11 L 55 13 L 49 13 L 49 19 L 47 19 L 47 13 Z" stroke-linecap="round" />
</g>
</g>
</g>
</svg>